<svg xmlns="http://www.w3.org/2000/svg" viewBox="0 0 640 360" width="640" height="360">
  <defs>
    <linearGradient id="bg" x1="0" y1="0" x2="1" y2="1">
      <stop offset="0" stop-color="#0a0e17"/>
      <stop offset="1" stop-color="#1e1b4b"/>
    </linearGradient>
    <linearGradient id="boardFrame" x1="0" y1="0" x2="0" y2="1">
      <stop offset="0" stop-color="#5a3a1f"/>
      <stop offset="1" stop-color="#2c1810"/>
    </linearGradient>
    <radialGradient id="glow" cx="0.5" cy="0.5" r="0.5">
      <stop offset="0" stop-color="#3b82f6" stop-opacity="0.45"/>
      <stop offset="1" stop-color="#3b82f6" stop-opacity="0"/>
    </radialGradient>

    <!-- Chess piece symbols (same as in chess.html) -->
    <symbol id="cv_wp" viewBox="0 0 100 100">
      <circle cx="50" cy="30" r="14" fill="white" stroke="black" stroke-width="4"/>
      <path d="M38,44 L62,44 L66,64 L34,64 Z" fill="white" stroke="black" stroke-width="4" stroke-linejoin="round"/>
      <path d="M22,64 L78,64 L84,90 L16,90 Z" fill="white" stroke="black" stroke-width="4" stroke-linejoin="round"/>
    </symbol>
    <symbol id="cv_bp" viewBox="0 0 100 100">
      <circle cx="50" cy="30" r="14" fill="black"/>
      <path d="M38,44 L62,44 L66,64 L34,64 Z" fill="black"/>
      <path d="M22,64 L78,64 L84,90 L16,90 Z" fill="black"/>
    </symbol>
    <symbol id="cv_wr" viewBox="0 0 100 100">
      <path d="M14,10 L26,10 L26,24 L34,24 L34,10 L48,10 L48,24 L58,24 L58,10 L72,10 L72,24 L80,24 L80,10 L86,10 L86,72 L14,72 Z" fill="white" stroke="black" stroke-width="4" stroke-linejoin="round"/>
      <path d="M8,72 L92,72 L96,90 L4,90 Z" fill="white" stroke="black" stroke-width="4" stroke-linejoin="round"/>
    </symbol>
    <symbol id="cv_br" viewBox="0 0 100 100">
      <path d="M14,10 L26,10 L26,24 L34,24 L34,10 L48,10 L48,24 L58,24 L58,10 L72,10 L72,24 L80,24 L80,10 L86,10 L86,72 L14,72 Z" fill="black"/>
      <path d="M8,72 L92,72 L96,90 L4,90 Z" fill="black"/>
    </symbol>
    <symbol id="cv_wn" viewBox="0 0 100 100">
      <path d="M28,88 L28,72 L18,60 L28,50 L24,36 L32,20 L46,10 L62,10 L74,22 L78,38 L72,46 L62,44 L56,36 L50,42 L46,52 L42,62 L38,72 L34,82 L30,88 Z" fill="white" stroke="black" stroke-width="4" stroke-linejoin="round"/>
      <path d="M30,42 L36,46 L34,52 L28,50 Z" fill="white" stroke="black" stroke-width="3" stroke-linejoin="round"/>
      <path d="M14,82 L86,82 L92,92 L8,92 Z" fill="white" stroke="black" stroke-width="4" stroke-linejoin="round"/>
    </symbol>
    <symbol id="cv_bn" viewBox="0 0 100 100">
      <path d="M28,88 L28,72 L18,60 L28,50 L24,36 L32,20 L46,10 L62,10 L74,22 L78,38 L72,46 L62,44 L56,36 L50,42 L46,52 L42,62 L38,72 L34,82 L30,88 Z" fill="black"/>
      <path d="M30,42 L36,46 L34,52 L28,50 Z" fill="black"/>
      <path d="M14,82 L86,82 L92,92 L8,92 Z" fill="black"/>
    </symbol>
    <symbol id="cv_wb" viewBox="0 0 100 100">
      <circle cx="50" cy="12" r="5" fill="white" stroke="black" stroke-width="3"/>
      <path d="M50,19 L34,55 L34,72 L66,72 L66,55 Z" fill="white" stroke="black" stroke-width="4" stroke-linejoin="round"/>
      <path d="M40,40 L60,40" stroke="black" stroke-width="2.5" stroke-linecap="round"/>
      <path d="M22,72 L78,72 L84,90 L16,90 Z" fill="white" stroke="black" stroke-width="4" stroke-linejoin="round"/>
    </symbol>
    <symbol id="cv_bb" viewBox="0 0 100 100">
      <circle cx="50" cy="12" r="5" fill="black"/>
      <path d="M50,19 L34,55 L34,72 L66,72 L66,55 Z" fill="black"/>
      <path d="M40,40 L60,40" stroke="black" stroke-width="2.5" stroke-linecap="round"/>
      <path d="M22,72 L78,72 L84,90 L16,90 Z" fill="black"/>
    </symbol>
    <symbol id="cv_wq" viewBox="0 0 100 100">
      <path d="M12,10 L20,32 L30,16 L40,32 L50,6 L60,32 L70,16 L80,32 L88,10 L84,72 L16,72 Z" fill="white" stroke="black" stroke-width="4" stroke-linejoin="round"/>
      <circle cx="50" cy="6" r="3" fill="white" stroke="black" stroke-width="2"/>
      <circle cx="20" cy="10" r="2.5" fill="white" stroke="black" stroke-width="2"/>
      <circle cx="80" cy="10" r="2.5" fill="white" stroke="black" stroke-width="2"/>
      <circle cx="30" cy="16" r="2" fill="white" stroke="black" stroke-width="2"/>
      <circle cx="70" cy="16" r="2" fill="white" stroke="black" stroke-width="2"/>
      <path d="M10,72 L90,72 L94,90 L6,90 Z" fill="white" stroke="black" stroke-width="4" stroke-linejoin="round"/>
    </symbol>
    <symbol id="cv_bq" viewBox="0 0 100 100">
      <path d="M12,10 L20,32 L30,16 L40,32 L50,6 L60,32 L70,16 L80,32 L88,10 L84,72 L16,72 Z" fill="black"/>
      <circle cx="50" cy="6" r="3" fill="black"/>
      <circle cx="20" cy="10" r="2.5" fill="black"/>
      <circle cx="80" cy="10" r="2.5" fill="black"/>
      <circle cx="30" cy="16" r="2" fill="black"/>
      <circle cx="70" cy="16" r="2" fill="black"/>
      <path d="M10,72 L90,72 L94,90 L6,90 Z" fill="black"/>
    </symbol>
    <symbol id="cv_wk" viewBox="0 0 100 100">
      <path d="M50,2 L50,18 M41,10 L59,10" stroke="black" stroke-width="5" stroke-linecap="round" fill="none"/>
      <path d="M28,20 L72,20 L66,36 L66,72 L34,72 L34,36 Z" fill="white" stroke="black" stroke-width="4" stroke-linejoin="round"/>
      <path d="M40,42 L60,42" stroke="black" stroke-width="2.5" stroke-linecap="round"/>
      <path d="M20,72 L80,72 L86,90 L14,90 Z" fill="white" stroke="black" stroke-width="4" stroke-linejoin="round"/>
    </symbol>
    <symbol id="cv_bk" viewBox="0 0 100 100">
      <path d="M50,2 L50,18 M41,10 L59,10" stroke="black" stroke-width="5" stroke-linecap="round" fill="none"/>
      <path d="M28,20 L72,20 L66,36 L66,72 L34,72 L34,36 Z" fill="black"/>
      <path d="M40,42 L60,42" stroke="black" stroke-width="2.5" stroke-linecap="round"/>
      <path d="M20,72 L80,72 L86,90 L14,90 Z" fill="black"/>
    </symbol>
  </defs>

  <rect width="640" height="360" fill="url(#bg)"/>
  <circle cx="320" cy="180" r="240" fill="url(#glow)"/>
  <g stroke="rgba(59,130,246,0.06)" stroke-width="1">
    <line x1="0" y1="0" x2="640" y2="360"/>
    <line x1="640" y1="0" x2="0" y2="360"/>
  </g>

  <!-- Board -->
  <g transform="translate(40,40)">
    <rect x="-8" y="-8" width="316" height="316" rx="8" fill="url(#boardFrame)"/>
    <rect x="0" y="0" width="300" height="300" rx="3" fill="#1a120b"/>

    <!-- Light squares -->
    <g fill="#f0d9b5">
      <rect x="0" y="0" width="37.5" height="37.5"/>
      <rect x="75" y="0" width="37.5" height="37.5"/>
      <rect x="150" y="0" width="37.5" height="37.5"/>
      <rect x="225" y="0" width="37.5" height="37.5"/>
      <rect x="37.5" y="37.5" width="37.5" height="37.5"/>
      <rect x="112.5" y="37.5" width="37.5" height="37.5"/>
      <rect x="187.5" y="37.5" width="37.5" height="37.5"/>
      <rect x="262.5" y="37.5" width="37.5" height="37.5"/>
      <rect x="0" y="75" width="37.5" height="37.5"/>
      <rect x="75" y="75" width="37.5" height="37.5"/>
      <rect x="150" y="75" width="37.5" height="37.5"/>
      <rect x="225" y="75" width="37.5" height="37.5"/>
      <rect x="37.5" y="112.5" width="37.5" height="37.5"/>
      <rect x="112.5" y="112.5" width="37.5" height="37.5"/>
      <rect x="187.5" y="112.5" width="37.5" height="37.5"/>
      <rect x="262.5" y="112.5" width="37.5" height="37.5"/>
      <rect x="0" y="150" width="37.5" height="37.5"/>
      <rect x="75" y="150" width="37.5" height="37.5"/>
      <rect x="150" y="150" width="37.5" height="37.5"/>
      <rect x="225" y="150" width="37.5" height="37.5"/>
      <rect x="37.5" y="187.5" width="37.5" height="37.5"/>
      <rect x="112.5" y="187.5" width="37.5" height="37.5"/>
      <rect x="187.5" y="187.5" width="37.5" height="37.5"/>
      <rect x="262.5" y="187.5" width="37.5" height="37.5"/>
      <rect x="0" y="225" width="37.5" height="37.5"/>
      <rect x="75" y="225" width="37.5" height="37.5"/>
      <rect x="150" y="225" width="37.5" height="37.5"/>
      <rect x="225" y="225" width="37.5" height="37.5"/>
      <rect x="37.5" y="262.5" width="37.5" height="37.5"/>
      <rect x="112.5" y="262.5" width="37.5" height="37.5"/>
      <rect x="187.5" y="262.5" width="37.5" height="37.5"/>
      <rect x="262.5" y="262.5" width="37.5" height="37.5"/>
    </g>
    <!-- Dark squares -->
    <g fill="#b58863">
      <rect x="37.5" y="0" width="37.5" height="37.5"/>
      <rect x="112.5" y="0" width="37.5" height="37.5"/>
      <rect x="187.5" y="0" width="37.5" height="37.5"/>
      <rect x="262.5" y="0" width="37.5" height="37.5"/>
      <rect x="0" y="37.5" width="37.5" height="37.5"/>
      <rect x="75" y="37.5" width="37.5" height="37.5"/>
      <rect x="150" y="37.5" width="37.5" height="37.5"/>
      <rect x="225" y="37.5" width="37.5" height="37.5"/>
      <rect x="37.5" y="75" width="37.5" height="37.5"/>
      <rect x="112.5" y="75" width="37.5" height="37.5"/>
      <rect x="187.5" y="75" width="37.5" height="37.5"/>
      <rect x="262.5" y="75" width="37.5" height="37.5"/>
      <rect x="0" y="112.5" width="37.5" height="37.5"/>
      <rect x="75" y="112.5" width="37.5" height="37.5"/>
      <rect x="150" y="112.5" width="37.5" height="37.5"/>
      <rect x="225" y="112.5" width="37.5" height="37.5"/>
      <rect x="37.5" y="150" width="37.5" height="37.5"/>
      <rect x="112.5" y="150" width="37.5" height="37.5"/>
      <rect x="187.5" y="150" width="37.5" height="37.5"/>
      <rect x="262.5" y="150" width="37.5" height="37.5"/>
      <rect x="0" y="187.5" width="37.5" height="37.5"/>
      <rect x="75" y="187.5" width="37.5" height="37.5"/>
      <rect x="150" y="187.5" width="37.5" height="37.5"/>
      <rect x="225" y="187.5" width="37.5" height="37.5"/>
      <rect x="37.5" y="225" width="37.5" height="37.5"/>
      <rect x="112.5" y="225" width="37.5" height="37.5"/>
      <rect x="187.5" y="225" width="37.5" height="37.5"/>
      <rect x="262.5" y="225" width="37.5" height="37.5"/>
      <rect x="0" y="262.5" width="37.5" height="37.5"/>
      <rect x="75" y="262.5" width="37.5" height="37.5"/>
      <rect x="150" y="262.5" width="37.5" height="37.5"/>
      <rect x="225" y="262.5" width="37.5" height="37.5"/>
    </g>

    <!-- Black back rank (top) -->
    <g>
      <use href="#cv_br" x="-1" y="0" width="40" height="40"/>
      <use href="#cv_bn" x="36" y="0" width="40" height="40"/>
      <use href="#cv_bb" x="73" y="0" width="40" height="40"/>
      <use href="#cv_bq" x="110" y="0" width="40" height="40"/>
      <use href="#cv_bk" x="147" y="0" width="40" height="40"/>
      <use href="#cv_bb" x="184" y="0" width="40" height="40"/>
      <use href="#cv_bn" x="221" y="0" width="40" height="40"/>
      <use href="#cv_br" x="258" y="0" width="40" height="40"/>
      <!-- Black pawns -->
      <use href="#cv_bp" x="-1" y="37" width="40" height="40"/>
      <use href="#cv_bp" x="36" y="37" width="40" height="40"/>
      <use href="#cv_bp" x="73" y="37" width="40" height="40"/>
      <use href="#cv_bp" x="110" y="37" width="40" height="40"/>
      <use href="#cv_bp" x="147" y="37" width="40" height="40"/>
      <use href="#cv_bp" x="184" y="37" width="40" height="40"/>
      <use href="#cv_bp" x="221" y="37" width="40" height="40"/>
      <use href="#cv_bp" x="258" y="37" width="40" height="40"/>
    </g>

    <!-- White back rank (bottom) -->
    <g>
      <use href="#cv_wp" x="-1" y="225" width="40" height="40"/>
      <use href="#cv_wp" x="36" y="225" width="40" height="40"/>
      <use href="#cv_wp" x="73" y="225" width="40" height="40"/>
      <use href="#cv_wp" x="110" y="225" width="40" height="40"/>
      <use href="#cv_wp" x="147" y="225" width="40" height="40"/>
      <use href="#cv_wp" x="184" y="225" width="40" height="40"/>
      <use href="#cv_wp" x="221" y="225" width="40" height="40"/>
      <use href="#cv_wp" x="258" y="225" width="40" height="40"/>
      <use href="#cv_wr" x="-1" y="262" width="40" height="40"/>
      <use href="#cv_wn" x="36" y="262" width="40" height="40"/>
      <use href="#cv_wb" x="73" y="262" width="40" height="40"/>
      <use href="#cv_wq" x="110" y="262" width="40" height="40"/>
      <use href="#cv_wk" x="147" y="262" width="40" height="40"/>
      <use href="#cv_wb" x="184" y="262" width="40" height="40"/>
      <use href="#cv_wn" x="221" y="262" width="40" height="40"/>
      <use href="#cv_wr" x="258" y="262" width="40" height="40"/>
    </g>
  </g>

  <!-- Title (Arabic) -->
  <g transform="translate(395,80)">
    <text x="0" y="0" font-family="Cairo, Tajawal, Arial, sans-serif" font-size="46" font-weight="900" fill="#f3f4f6" letter-spacing="0" text-anchor="start">شطرنج</text>
    <text x="0" y="30" font-family="Cairo, Tajawal, Arial, sans-serif" font-size="14" font-weight="700" fill="#9ca3af" letter-spacing="1" text-anchor="start">لاعبان · نفس الجهاز</text>

    <!-- Feature pills -->
    <g transform="translate(0,58)">
      <rect x="0" y="0" width="108" height="26" rx="13" fill="rgba(59,130,246,.15)" stroke="rgba(59,130,246,.4)"/>
      <text x="54" y="17" font-family="Cairo, Tajawal, Arial, sans-serif" font-size="11" font-weight="800" fill="#93c5fd" text-anchor="middle">قوانين كاملة</text>
    </g>
    <g transform="translate(0,92)">
      <rect x="0" y="0" width="108" height="26" rx="13" fill="rgba(139,92,246,.15)" stroke="rgba(139,92,246,.4)"/>
      <text x="54" y="17" font-family="Cairo, Tajawal, Arial, sans-serif" font-size="11" font-weight="800" fill="#c4b5fd" text-anchor="middle">انقر للتحريك</text>
    </g>
    <g transform="translate(0,126)">
      <rect x="0" y="0" width="92" height="26" rx="13" fill="rgba(251,191,36,.15)" stroke="rgba(251,191,36,.4)"/>
      <text x="46" y="17" font-family="Cairo, Tajawal, Arial, sans-serif" font-size="11" font-weight="800" fill="#fcd34d" text-anchor="middle">عدادات</text>
    </g>
    <g transform="translate(0,160)">
      <rect x="0" y="0" width="108" height="26" rx="13" fill="rgba(34,197,94,.15)" stroke="rgba(34,197,94,.4)"/>
      <text x="54" y="17" font-family="Cairo, Tajawal, Arial, sans-serif" font-size="11" font-weight="800" fill="#86efac" text-anchor="middle">تراجع واستسلام</text>
    </g>
  </g>
</svg>
